<svg width="200" height="200" viewBox="0 0 200 200" fill="none" xmlns="http://www.w3.org/2000/svg">
  <rect width="200" height="200" rx="20" fill="url(#gradient3)"/>
  <defs>
    <linearGradient id="gradient3" x1="0%" y1="0%" x2="100%" y2="100%">
      <stop offset="0%" style="stop-color:#ec4899;stop-opacity:0.8" />
      <stop offset="100%" style="stop-color:#7c3aed;stop-opacity:0.8" />
    </linearGradient>
  </defs>
  
  <!-- Body silhouette -->
  <ellipse cx="100" cy="70" rx="20" ry="25" fill="white" opacity="0.9"/>
  <ellipse cx="100" cy="120" rx="25" ry="35" fill="white" opacity="0.9"/>
  
  <!-- Arms -->
  <ellipse cx="70" cy="90" rx="8" ry="20" fill="white" opacity="0.8"/>
  <ellipse cx="130" cy="90" rx="8" ry="20" fill="white" opacity="0.8"/>
  
  <!-- Massage elements -->
  <circle cx="85" cy="100" r="3" fill="#ec4899" opacity="0.7"/>
  <circle cx="100" cy="105" r="3" fill="#ec4899" opacity="0.7"/>
  <circle cx="115" cy="100" r="3" fill="#ec4899" opacity="0.7"/>
  
  <!-- Wellness symbols -->
  <circle cx="50" cy="50" r="6" fill="white" opacity="0.6"/>
  <circle cx="150" cy="50" r="6" fill="white" opacity="0.6"/>
  <circle cx="50" cy="150" r="6" fill="white" opacity="0.6"/>
  <circle cx="150" cy="150" r="6" fill="white" opacity="0.6"/>
  
  <!-- Sparkles -->
  <circle cx="65" cy="35" r="2" fill="white"/>
  <circle cx="135" cy="30" r="2" fill="white"/>
  <circle cx="170" cy="70" r="2" fill="white"/>
  <circle cx="30" cy="120" r="2" fill="white"/>
  <circle cx="170" cy="160" r="2" fill="white"/>
</svg>